<svg width="24" height="24" viewBox="0 0 24 24" fill="none" xmlns="http://www.w3.org/2000/svg">
<g clip-path="url(#clip0_2_2642)">
<rect width="24" height="24" rx="12" fill="#EDEDED"/>
<path fill-rule="evenodd" clip-rule="evenodd" d="M9.29303 16.7069C9.10556 16.5194 9.00024 16.2651 9.00024 15.9999C9.00024 15.7348 9.10556 15.4804 9.29303 15.2929L12.586 11.9999L9.29303 8.70692C9.11087 8.51832 9.01008 8.26571 9.01236 8.00352C9.01463 7.74132 9.1198 7.49051 9.30521 7.3051C9.49062 7.11969 9.74143 7.01452 10.0036 7.01224C10.2658 7.00997 10.5184 7.11076 10.707 7.29292L14.707 11.2929C14.8945 11.4804 14.9998 11.7348 14.9998 11.9999C14.9998 12.2651 14.8945 12.5194 14.707 12.7069L10.707 16.7069C10.5195 16.8944 10.2652 16.9997 10 16.9997C9.73487 16.9997 9.48056 16.8944 9.29303 16.7069Z" fill="#252C32"/>
</g>
<defs>
<clipPath id="clip0_2_2642">
<rect width="24" height="24" rx="12" fill="white"/>
</clipPath>
</defs>
</svg>
