<svg width="28" height="28" viewBox="0 0 28 28" fill="none" xmlns="http://www.w3.org/2000/svg">
<path fill-rule="evenodd" clip-rule="evenodd" d="M8.50852 10.8418C8.7273 10.623 9.02399 10.5002 9.33335 10.5002C9.64271 10.5002 9.9394 10.623 10.1582 10.8418L14 14.6836L17.8418 10.8418C17.9495 10.7303 18.0782 10.6415 18.2205 10.5803C18.3629 10.5192 18.516 10.487 18.6709 10.4856C18.8258 10.4843 18.9794 10.5138 19.1228 10.5725C19.2662 10.6311 19.3964 10.7178 19.506 10.8273C19.6155 10.9368 19.7021 11.0671 19.7608 11.2105C19.8195 11.3539 19.849 11.5075 19.8476 11.6624C19.8463 11.8173 19.8141 11.9704 19.753 12.1127C19.6918 12.2551 19.6029 12.3838 19.4915 12.4914L14.8248 17.1581C14.6061 17.3768 14.3094 17.4997 14 17.4997C13.6907 17.4997 13.394 17.3768 13.1752 17.1581L8.50852 12.4914C8.2898 12.2726 8.16693 11.976 8.16693 11.6666C8.16693 11.3572 8.2898 11.0605 8.50852 10.8418Z" fill="#6E8BB7"/>
</svg>
