<svg width="11" height="11" viewBox="0 0 11 11" fill="none" xmlns="http://www.w3.org/2000/svg">
<path fill-rule="evenodd" clip-rule="evenodd" d="M2.88432 2.88431C2.97027 2.79838 3.08682 2.75011 3.20836 2.75011C3.32989 2.75011 3.44645 2.79838 3.5324 2.88431L5.50002 4.85193L7.46765 2.88431C7.50993 2.84053 7.5605 2.80562 7.61642 2.7816C7.67234 2.75757 7.73248 2.74493 7.79334 2.7444C7.8542 2.74387 7.91455 2.75547 7.97088 2.77852C8.02721 2.80156 8.07838 2.83559 8.12141 2.87863C8.16445 2.92166 8.19848 2.97284 8.22153 3.02916C8.24457 3.08549 8.25617 3.14584 8.25564 3.2067C8.25511 3.26756 8.24247 3.3277 8.21845 3.38362C8.19442 3.43954 8.15951 3.49011 8.11573 3.53239L6.14811 5.50002L8.11573 7.46764C8.19922 7.55408 8.24542 7.66986 8.24437 7.79003C8.24333 7.91021 8.19513 8.02516 8.11015 8.11014C8.02517 8.19512 7.91021 8.24332 7.79004 8.24437C7.66987 8.24541 7.55409 8.19921 7.46765 8.11572L5.50002 6.1481L3.5324 8.11572C3.44596 8.19921 3.33018 8.24541 3.21001 8.24437C3.08983 8.24332 2.97488 8.19512 2.8899 8.11014C2.80492 8.02516 2.75672 7.91021 2.75567 7.79003C2.75463 7.66986 2.80083 7.55408 2.88432 7.46764L4.85194 5.50002L2.88432 3.53239C2.79839 3.44644 2.75012 3.32988 2.75012 3.20835C2.75012 3.08682 2.79839 2.97026 2.88432 2.88431V2.88431Z" fill="#252C32"/>
</svg>
